<svg width="900" height="600" xmlns="http://www.w3.org/2000/svg"><path fill="#FDF8EC" d="M0 0h900v600H0z"/><path d="m0 395 21.5 12.2C43 419.3 86 443.7 128.8 445.7c42.9 2 85.5-18.4 128.4-25.7 42.8-7.3 85.8-1.7 128.6.8 42.9 2.5 85.5 1.9 128.4 9.9 42.8 8 85.8 24.6 128.6 27.1 42.9 2.5 85.5-9.1 128.4-21.1 42.8-12 85.8-24.4 107.3-30.5L900 400v201H0Z" fill="#fff"/><path d="m0 539 21.5-4.3c21.5-4.4 64.5-13 107.3-15.7 42.9-2.7 85.5.7 128.4 2.5 42.8 1.8 85.8 2.2 128.6-6.2 42.9-8.3 85.5-25.3 128.4-29.3 42.8-4 85.8 5 128.6 17.3 42.9 12.4 85.5 28 128.4 21.4C814 518 857 489 878.5 474.5L900 460v141H0Z" fill="#02b0ef"/></svg>
